<?xml version="1.0" standalone="no"?>
<!DOCTYPE svg PUBLIC "-//W3C//DTD SVG 20010904//EN"
 "http://www.w3.org/TR/2001/REC-SVG-20010904/DTD/svg10.dtd">
<svg version="1.0" xmlns="http://www.w3.org/2000/svg"
 width="1119.000000pt" height="1280.000000pt" viewBox="0 0 1119.000000 1280.000000"
 preserveAspectRatio="xMidYMid meet">
<metadata>
Created by potrace 1.15, written by Peter Selinger 2001-2017
</metadata>
<g transform="translate(0.000000,1280.000000) scale(0.100000,-0.100000)"
fill="#000000" stroke="none">
<path d="M4350 12793 c-78 -31 -86 -133 -10 -133 42 0 60 38 37 74 -11 16 -13
27 -6 31 18 12 58 -5 75 -30 24 -36 3 -77 -62 -126 -56 -41 -81 -74 -65 -84 5
-3 26 6 47 20 24 16 51 25 76 25 32 0 47 7 74 34 37 37 42 62 19 106 -32 61
-130 106 -185 83z"/>
<path d="M3786 12724 c-38 -37 -7 -97 48 -92 43 4 65 48 42 84 -19 28 -66 33
-90 8z"/>
<path d="M5054 12683 c-42 -31 -56 -101 -29 -152 15 -31 33 -41 70 -41 27 0
48 30 39 54 -11 30 -57 30 -68 0 -9 -24 -26 -6 -26 27 0 22 7 32 25 41 20 9
33 7 77 -15 73 -35 88 -39 88 -23 0 8 -8 16 -18 18 -11 3 -32 25 -48 49 -24
36 -36 44 -64 47 -19 1 -40 -1 -46 -5z"/>
<path d="M3353 12655 c-27 -19 -30 -57 -7 -76 22 -18 49 1 49 35 -1 28 22 35
43 14 32 -32 5 -76 -59 -97 -20 -7 -45 -21 -55 -33 -19 -21 -19 -21 11 -13 17
4 53 7 82 6 41 -2 57 3 73 19 67 67 -60 201 -137 145z"/>
<path d="M5280 12595 c-26 -32 13 -81 48 -59 34 22 22 74 -18 74 -10 0 -23 -7
-30 -15z"/>
<path d="M3850 12544 c0 -26 -11 -51 -40 -91 -46 -64 -51 -106 -20 -146 75
-95 270 -29 270 91 0 38 -35 82 -64 82 -28 0 -56 -29 -56 -57 0 -23 30 -53 53
-53 9 0 17 -3 17 -7 -1 -30 -53 -55 -87 -42 -37 14 -46 44 -39 138 8 92 3 121
-20 121 -9 0 -14 -12 -14 -36z"/>
<path d="M2822 12524 c-41 -28 -20 -104 29 -104 23 0 59 34 59 55 0 22 17 18
34 -7 24 -34 20 -73 -10 -97 -32 -25 -50 -26 -134 -4 -67 17 -125 12 -117 -10
2 -6 21 -15 43 -20 22 -4 54 -22 74 -41 61 -58 113 -72 158 -40 49 34 68 127
38 197 -30 74 -119 110 -174 71z"/>
<path d="M5765 12496 c-80 -38 -140 -112 -175 -216 -29 -84 -25 -213 8 -276
41 -79 125 -134 204 -134 152 0 191 198 48 241 -50 15 -89 0 -130 -50 -28 -33
-31 -34 -47 -19 -23 24 -29 117 -10 154 27 52 62 76 117 82 75 7 128 -18 219
-103 91 -85 139 -118 200 -140 48 -17 56 -13 66 25 5 22 0 28 -41 50 -56 29
-94 83 -125 179 -31 96 -67 157 -109 186 -73 51 -148 58 -225 21z"/>
<path d="M4235 12456 c-19 -28 -9 -58 26 -76 45 -25 94 51 57 88 -21 21 -66
14 -83 -12z"/>
<path d="M3237 12453 c-26 -26 12 -80 47 -67 21 8 30 42 16 59 -13 15 -51 20
-63 8z"/>
<path d="M2531 12371 c-26 -26 -27 -63 -1 -86 40 -36 100 -13 100 40 0 52 -63
82 -99 46z"/>
<path d="M4565 12342 c-52 -25 -74 -51 -82 -95 -5 -32 -1 -41 31 -73 31 -31
41 -36 69 -30 48 9 77 48 77 102 0 49 13 56 56 28 52 -34 68 -102 37 -155 -26
-44 -87 -69 -195 -78 -88 -7 -188 -38 -188 -58 0 -4 7 -16 14 -26 12 -16 18
-17 36 -7 40 21 101 15 179 -20 62 -27 83 -32 131 -28 67 5 110 31 135 84 24
50 17 162 -13 221 -62 121 -190 181 -287 135z"/>
<path d="M10256 12004 c-75 -148 -334 -663 -576 -1146 -242 -482 -448 -892
-459 -911 -11 -19 -231 -458 -491 -976 -436 -871 -473 -941 -496 -941 -31 0
-74 -42 -74 -71 0 -12 7 -30 15 -39 14 -16 14 -21 -1 -54 -10 -20 -20 -36 -23
-36 -3 0 -26 27 -49 60 -37 50 -94 100 -115 100 -17 0 -15 -35 3 -47 29 -20
47 -60 55 -123 4 -30 15 -70 26 -88 l19 -32 -202 -403 -201 -403 -51 -25 c-71
-34 -94 -79 -77 -154 11 -50 10 -57 -14 -105 -15 -29 -24 -55 -21 -58 4 -3 61
-9 129 -14 136 -10 396 3 545 27 1008 162 1896 869 2510 2001 458 844 592
1710 387 2492 -103 393 -279 729 -548 1047 -41 50 -93 107 -115 129 l-40 38
-136 -268z"/>
<path d="M2265 12194 c-20 -21 -16 -43 11 -61 19 -12 24 -11 45 6 21 16 22 22
11 45 -13 30 -43 34 -67 10z"/>
<path d="M3469 12184 c-9 -11 -10 -20 -2 -32 24 -39 82 -15 68 28 -8 24 -47
27 -66 4z"/>
<path d="M5205 12176 c-43 -19 -75 -58 -82 -99 -4 -29 -1 -40 20 -61 15 -14
32 -26 40 -26 22 0 39 26 35 52 -2 18 -10 24 -35 26 -40 4 -43 25 -7 48 24 16
27 16 52 -3 15 -11 32 -38 38 -60 14 -48 32 -83 42 -83 4 0 7 40 7 90 0 96 -8
114 -55 124 -14 3 -38 0 -55 -8z"/>
<path d="M6466 12115 c-49 -17 -73 -40 -86 -81 -15 -45 -5 -88 32 -129 66 -75
189 -45 217 53 27 94 -71 188 -163 157z"/>
<path d="M3426 12099 c-10 -6 -35 -8 -56 -5 -50 8 -90 -22 -90 -66 0 -43 57
-98 102 -98 38 0 50 7 66 35 13 25 -2 55 -28 55 -23 0 -39 -26 -33 -51 4 -12
0 -19 -9 -19 -36 0 -51 56 -22 81 9 8 35 23 57 34 23 11 43 26 45 33 4 15 -7
15 -32 1z"/>
<path d="M2224 12090 c-6 -6 -36 -12 -67 -14 -71 -4 -97 -24 -97 -75 1 -88
117 -145 175 -86 30 29 31 46 6 69 -29 26 -63 5 -59 -36 2 -16 0 -30 -4 -29
-5 1 -15 1 -23 1 -9 0 -20 11 -26 24 -16 34 1 58 66 95 30 17 55 38 55 46 0
17 -12 19 -26 5z"/>
<path d="M2694 12090 c-77 -30 -95 -153 -30 -196 47 -30 109 12 76 51 -14 17
-56 20 -65 5 -11 -18 -25 -11 -25 13 0 33 33 61 62 54 13 -4 41 -21 63 -40 22
-18 48 -36 58 -40 24 -9 22 15 -3 30 -10 7 -24 31 -31 53 -18 60 -60 88 -105
70z"/>
<path d="M3767 11972 c-24 -26 -21 -59 5 -68 26 -8 48 17 41 46 -6 23 16 27
35 8 27 -27 13 -56 -43 -93 -52 -33 -77 -67 -37 -50 9 5 41 11 71 15 75 9 97
43 69 105 -23 51 -109 73 -141 37z"/>
<path d="M2906 11954 c-34 -33 -8 -82 38 -70 31 8 40 33 21 62 -18 28 -37 30
-59 8z"/>
<path d="M4185 11946 c-58 -26 -71 -97 -27 -147 23 -26 36 -32 70 -32 49 0 76
20 92 68 25 77 -58 145 -135 111z"/>
<path d="M5362 11953 c-7 -3 -17 -13 -22 -24 -23 -43 39 -82 70 -44 26 31 -9
81 -48 68z"/>
<path d="M6790 11921 c-36 -36 -46 -71 -28 -108 24 -51 101 -39 81 13 -4 11
-14 14 -34 10 -36 -7 -44 6 -21 34 24 30 52 21 92 -31 30 -37 60 -52 60 -29 0
6 -4 10 -10 10 -5 0 -17 25 -25 55 -24 80 -65 97 -115 46z"/>
<path d="M6195 11841 c-44 -19 -70 -60 -69 -107 2 -81 65 -131 143 -113 53 12
81 49 81 109 0 40 -5 56 -27 80 -30 33 -90 48 -128 31z"/>
<path d="M6971 11796 c-9 -11 -10 -20 -1 -35 19 -36 64 -20 58 20 -4 28 -39
37 -57 15z"/>
<path d="M1732 11788 c-25 -25 -6 -68 30 -68 9 0 22 9 28 19 13 25 13 27 -6
45 -19 19 -36 20 -52 4z"/>
<path d="M3690 11775 c-20 -25 -8 -50 25 -50 24 0 31 5 33 24 6 37 -34 55 -58
26z"/>
<path d="M5896 11734 c-19 -18 -21 -55 -4 -72 19 -19 55 -14 72 10 l15 21 12
-26 c10 -22 9 -31 -5 -52 -25 -38 -73 -34 -131 11 -40 30 -84 54 -101 54 -14
0 0 -30 21 -44 14 -9 37 -41 51 -70 26 -55 54 -76 100 -76 56 0 114 100 100
173 -12 66 -92 109 -130 71z"/>
<path d="M4894 11720 c-52 -16 -120 -85 -155 -156 -41 -82 -51 -198 -25 -286
19 -66 83 -143 141 -169 74 -34 174 -18 206 32 57 88 10 189 -87 189 -59 0
-70 -6 -105 -56 -16 -24 -34 -44 -40 -44 -6 0 -19 21 -31 46 -48 110 18 214
137 214 59 0 119 -26 190 -79 28 -21 70 -48 93 -60 43 -22 152 -54 160 -47 2
3 5 19 5 36 2 28 -2 33 -36 45 -65 22 -101 59 -151 153 -50 95 -90 143 -139
169 -37 18 -122 25 -163 13z"/>
<path d="M5608 11705 c-9 -19 -8 -29 6 -50 20 -30 49 -32 76 -5 24 24 24 29 4
58 -22 31 -71 30 -86 -3z"/>
<path d="M1802 11663 c1 -21 -3 -57 -7 -79 -6 -35 -4 -45 14 -63 52 -52 161 1
161 78 0 25 -7 44 -19 55 -22 20 -56 14 -65 -11 -9 -22 23 -55 46 -47 21 6 22
1 8 -27 -14 -24 -52 -25 -74 0 -9 10 -20 36 -23 57 -11 76 -41 102 -41 37z"/>
<path d="M6770 11658 c-70 -47 -71 -146 -1 -182 43 -23 81 -20 123 9 42 28 51
22 51 -34 0 -75 -61 -141 -131 -141 -72 0 -140 57 -201 169 -36 65 -72 108
-123 145 l-37 27 -17 -26 c-17 -25 -16 -27 13 -58 49 -51 60 -85 71 -205 9
-94 15 -120 36 -152 75 -114 221 -118 341 -8 147 134 161 349 29 440 -57 40
-110 46 -154 16z"/>
<path d="M2403 11655 c-33 -23 -56 -92 -48 -144 13 -84 103 -140 157 -98 29
21 27 71 -2 87 -29 15 -59 3 -71 -28 l-11 -27 -19 24 c-24 30 -24 42 2 75 25
32 65 34 128 6 53 -24 111 -27 111 -5 0 9 -9 15 -23 15 -14 0 -43 20 -77 55
-46 46 -60 55 -90 55 -20 0 -45 -7 -57 -15z"/>
<path d="M3154 11616 c-11 -28 1 -51 27 -54 31 -4 53 20 44 48 -8 24 -62 29
-71 6z"/>
<path d="M2720 11590 c-25 -25 -26 -52 -2 -73 37 -34 92 -11 92 38 0 24 -33
55 -57 55 -7 0 -22 -9 -33 -20z"/>
<path d="M3621 11578 c-48 -24 -94 -86 -112 -153 -17 -62 -5 -185 24 -248 47
-103 128 -171 220 -183 100 -14 197 48 197 127 0 87 -62 140 -140 119 -47 -13
-75 -46 -84 -99 -8 -49 -18 -57 -51 -35 -62 41 -82 148 -39 207 45 61 149 82
259 54 99 -25 148 -29 210 -18 32 6 60 13 63 15 2 3 1 18 -2 34 -7 28 -8 28
-69 28 -73 0 -95 10 -192 89 -38 32 -84 64 -102 71 -49 21 -131 17 -182 -8z"/>
<path d="M4311 11564 c-91 -76 -36 -214 86 -214 80 0 136 80 110 158 -26 78
-134 109 -196 56z"/>
<path d="M1372 11554 c-31 -22 -26 -59 8 -59 18 0 26 6 28 23 4 25 12 28 30
10 32 -32 -6 -78 -63 -78 -25 0 -82 -27 -65 -30 3 -1 21 -3 40 -5 19 -2 51 -7
70 -10 46 -8 73 12 73 54 0 42 -21 80 -55 97 -34 18 -38 18 -66 -2z"/>
<path d="M3143 11515 c-5 -8 -33 -23 -63 -33 -42 -13 -57 -23 -64 -43 -13 -39
1 -77 37 -99 67 -41 152 -13 145 48 -2 23 -8 27 -33 27 -28 0 -30 -2 -28 -37
2 -31 -1 -38 -15 -38 -53 0 -56 63 -6 111 43 41 58 66 45 74 -6 3 -14 -1 -18
-10z"/>
<path d="M7197 11492 c-22 -25 -21 -75 1 -95 45 -41 112 -8 112 54 0 53 -77
81 -113 41z"/>
<path d="M5585 11436 c-77 -33 -106 -116 -65 -183 53 -87 180 -80 224 11 20
43 20 59 0 102 -30 63 -103 95 -159 70z"/>
<path d="M1236 11404 c-10 -9 -15 -23 -12 -31 3 -8 6 -17 6 -19 0 -2 11 -4 25
-4 29 0 43 25 28 48 -14 23 -29 25 -47 6z"/>
<path d="M5829 11409 c-27 -10 -49 -45 -49 -78 0 -10 9 -30 21 -45 16 -20 29
-26 59 -26 69 0 103 73 58 124 -28 30 -55 37 -89 25z"/>
<path d="M7297 11323 c-4 -4 -4 -21 -1 -40 5 -26 -2 -48 -31 -104 -30 -59 -36
-79 -32 -112 11 -78 81 -117 178 -96 43 9 64 21 102 59 44 44 47 51 47 97 0
84 -50 129 -110 98 -56 -29 -32 -115 33 -115 33 0 35 -19 4 -48 -27 -26 -73
-29 -104 -7 -28 20 -46 86 -38 136 12 72 -20 160 -48 132z"/>
<path d="M6235 11281 c-49 -21 -66 -75 -35 -114 25 -31 72 -36 106 -12 26 17
34 11 34 -27 0 -16 -11 -41 -29 -60 -22 -25 -36 -32 -64 -31 -50 1 -83 27
-127 102 -21 36 -54 82 -74 101 -34 32 -37 33 -53 17 -16 -16 -15 -19 11 -46
26 -27 30 -40 36 -119 9 -99 16 -118 61 -156 94 -79 261 22 285 173 16 100
-75 203 -151 172z"/>
<path d="M985 11228 c-52 -28 -62 -92 -20 -133 51 -52 135 -17 135 56 0 68
-59 108 -115 77z"/>
<path d="M1902 11210 c-43 -40 -16 -115 31 -89 23 13 22 35 -3 52 -18 13 -19
16 -5 27 12 10 21 10 40 2 29 -13 33 -52 10 -92 -17 -29 -20 -70 -5 -70 6 0
10 6 10 13 0 8 18 30 40 50 46 41 51 73 17 105 -31 30 -104 30 -135 2z"/>
<path d="M1419 11210 c-23 -14 -42 -65 -35 -95 6 -24 51 -55 80 -55 8 0 28 11
44 25 37 31 40 31 53 -1 12 -34 -4 -88 -34 -109 -12 -8 -40 -15 -63 -15 -45 0
-92 29 -154 95 -33 35 -97 75 -120 75 -28 0 -18 -32 23 -72 34 -33 48 -57 62
-103 21 -74 37 -100 78 -125 115 -70 260 47 261 210 1 76 -21 122 -74 157 -34
24 -92 30 -121 13z"/>
<path d="M2387 11169 c-46 -24 -77 -72 -77 -117 0 -25 9 -43 34 -68 39 -39 67
-43 114 -14 40 24 52 54 45 109 -5 35 -3 41 13 41 30 0 82 -36 99 -69 21 -42
19 -82 -8 -122 -31 -48 -96 -77 -200 -88 -90 -10 -207 -53 -207 -75 0 -6 7
-19 14 -29 12 -16 16 -16 49 -2 55 23 107 18 193 -16 138 -55 239 -27 286 79
53 120 -33 312 -165 373 -56 25 -140 24 -190 -2z"/>
<path d="M4305 11165 c-52 -18 -85 -57 -85 -98 0 -67 56 -107 115 -83 40 17
55 42 55 90 0 44 11 45 55 4 46 -42 54 -90 25 -136 -30 -49 -72 -62 -197 -62
-106 0 -177 -11 -188 -30 -3 -5 -1 -19 5 -29 9 -17 14 -19 38 -10 40 15 89 2
167 -44 60 -36 77 -42 127 -42 63 0 97 19 136 75 17 26 22 47 22 102 0 175
-141 310 -275 263z"/>
<path d="M5115 11081 c-76 -35 -114 -99 -95 -157 25 -76 108 -98 162 -44 26
26 29 36 25 68 -14 91 -15 87 18 84 65 -8 115 -61 115 -122 0 -72 -67 -132
-185 -165 -73 -21 -108 -39 -158 -78 l-37 -31 21 -22 21 -22 35 24 c50 33 86
37 187 20 132 -24 204 3 246 89 91 187 -165 444 -355 356z"/>
<path d="M1943 10984 c-8 -22 10 -49 32 -49 10 0 22 7 28 16 15 24 1 49 -28
49 -15 0 -28 -7 -32 -16z"/>
<path d="M5644 10966 c-56 -25 -80 -87 -54 -137 13 -23 62 -26 80 -4 17 20 5
62 -21 70 -22 7 -21 23 4 39 25 16 70 -4 81 -37 8 -21 6 -40 -7 -76 -20 -57
-23 -125 -5 -119 7 3 15 17 19 32 4 15 26 47 48 71 43 46 52 85 31 126 -25 45
-113 62 -176 35z"/>
<path d="M3417 10904 c-50 -50 -47 -134 6 -164 31 -18 60 -6 65 27 5 30 -24
50 -50 34 -31 -19 -45 1 -24 33 24 37 51 32 108 -19 28 -25 54 -45 58 -45 19
0 19 20 1 30 -12 6 -25 29 -32 53 -6 23 -18 50 -26 60 -24 26 -75 22 -106 -9z"/>
<path d="M3030 10871 c-13 -25 -4 -48 21 -56 38 -12 65 35 37 63 -18 18 -46
14 -58 -7z"/>
<path d="M6774 10869 c-22 -5 -65 -24 -94 -42 -122 -73 -150 -257 -48 -313 13
-8 42 -13 66 -14 35 0 49 6 72 28 33 33 46 85 31 124 -6 15 -28 40 -50 55 -48
33 -51 48 -13 67 52 27 88 29 136 7 116 -51 116 -185 0 -333 -54 -70 -93 -152
-97 -204 -2 -37 0 -39 30 -42 28 -3 32 0 38 27 13 61 58 105 156 156 132 67
175 113 192 203 18 95 -69 217 -186 260 -67 26 -175 35 -233 21z"/>
<path d="M923 10840 c-29 -26 -36 -52 -23 -84 26 -70 109 -53 135 28 5 18 7
18 30 -4 34 -32 34 -91 0 -125 -31 -32 -88 -33 -170 -5 -55 19 -135 27 -147
14 -15 -14 5 -41 32 -42 39 -1 86 -27 112 -63 48 -64 125 -87 188 -54 98 51
92 265 -9 332 -44 30 -118 31 -148 3z"/>
<path d="M7674 10840 c-11 -4 -33 -22 -47 -40 -51 -60 -28 -160 38 -160 14 0
29 8 35 20 21 40 -26 80 -58 48 -17 -17 -27 15 -12 41 21 39 60 27 116 -36 31
-34 55 -54 62 -49 8 5 6 13 -8 28 -13 14 -20 36 -20 61 0 29 -7 45 -29 68 -31
30 -42 33 -77 19z"/>
<path d="M3865 10816 c-52 -52 -41 -116 27 -149 33 -16 40 -17 71 -3 20 8 40
23 46 34 49 92 -72 190 -144 118z"/>
<path d="M3648 10789 c-24 -13 -23 -56 0 -68 14 -7 25 -6 40 5 26 18 28 37 6
58 -18 19 -23 19 -46 5z"/>
<path d="M6161 10772 c-67 -34 -91 -100 -62 -171 24 -56 100 -78 160 -46 26
13 50 50 66 103 9 30 18 28 53 -13 77 -87 38 -214 -74 -245 -58 -17 -125 -5
-234 42 -57 24 -94 32 -156 36 -45 2 -84 0 -87 -4 -3 -5 -3 -21 0 -36 4 -22
12 -27 51 -33 72 -11 113 -37 191 -124 91 -101 137 -125 226 -119 52 3 73 10
107 34 113 79 150 292 76 437 -28 56 -87 118 -133 138 -52 24 -139 24 -184 1z"/>
<path d="M3050 10757 c-7 -15 -28 -37 -47 -48 -53 -33 -58 -87 -11 -122 38
-28 102 -26 133 3 43 41 25 111 -25 95 -25 -8 -27 -50 -2 -64 15 -9 15 -12 2
-21 -21 -14 -36 -12 -54 6 -21 21 -20 42 5 88 11 21 19 50 17 65 l-4 26 -14
-28z"/>
<path d="M1981 10704 c-56 -46 -50 -138 10 -169 65 -34 140 -6 158 60 27 100
-89 176 -168 109z"/>
<path d="M1654 10690 c-61 -24 -85 -121 -44 -173 24 -30 78 -50 113 -42 36 9
77 57 83 97 14 83 -73 150 -152 118z"/>
<path d="M552 10667 c-42 -45 -18 -111 45 -123 67 -13 110 77 60 124 -31 29
-77 29 -105 -1z"/>
<path d="M7856 10654 c-9 -8 -16 -21 -16 -28 0 -15 32 -46 48 -46 15 0 42 29
42 45 0 7 -7 21 -16 29 -8 9 -22 16 -29 16 -7 0 -21 -7 -29 -16z"/>
<path d="M5707 10642 c-24 -27 -21 -59 8 -78 23 -15 27 -15 50 0 30 20 33 56
7 79 -24 22 -45 21 -65 -1z"/>
<path d="M3393 10559 c-51 -15 -83 -61 -83 -120 0 -95 91 -154 179 -115 47 22
71 61 71 119 0 56 -34 102 -88 117 -20 5 -39 10 -42 9 -3 0 -19 -5 -37 -10z"/>
<path d="M3970 10555 c-15 -18 -5 -64 15 -72 45 -17 87 26 65 67 -13 24 -61
27 -80 5z"/>
<path d="M4774 10536 c-43 -43 -46 -90 -9 -134 31 -36 73 -48 119 -32 42 14
66 48 66 95 0 47 -14 71 -50 90 -49 25 -88 19 -126 -19z"/>
<path d="M2485 10535 c-46 -16 -65 -38 -65 -75 0 -41 26 -70 64 -70 41 0 66
26 66 68 0 34 14 40 41 19 37 -28 50 -88 26 -117 -32 -39 -50 -45 -168 -50
-119 -5 -145 -13 -134 -42 5 -12 17 -14 50 -10 37 4 54 -1 108 -32 82 -46 140
-49 186 -10 62 52 63 167 1 253 -47 65 -110 88 -175 66z"/>
<path d="M4290 10514 c-105 -45 -160 -170 -111 -250 17 -28 18 -33 4 -47 -17
-17 -10 -52 13 -61 22 -9 54 12 54 34 0 16 7 20 33 20 39 0 72 21 92 60 22 42
18 80 -10 122 -31 46 -31 56 1 64 61 15 131 -14 164 -69 53 -86 -1 -194 -135
-274 -68 -41 -147 -113 -175 -160 l-19 -33 29 -15 c29 -15 31 -15 60 19 44 49
89 67 210 81 77 8 118 18 149 35 49 28 97 95 106 149 19 116 -91 267 -235 322
-62 23 -180 25 -230 3z"/>
<path d="M5504 10497 c-31 -28 -37 -42 -41 -84 -5 -47 -3 -54 28 -87 74 -81
197 -49 223 56 9 37 -14 88 -53 121 -48 40 -109 38 -157 -6z"/>
<path d="M1343 10504 c-94 -48 -96 -191 -4 -239 80 -41 180 10 197 101 19 101
-100 186 -193 138z"/>
<path d="M3920 10459 c-9 -6 -45 -7 -87 -4 -68 6 -74 5 -98 -19 -31 -31 -33
-78 -5 -124 23 -37 75 -72 107 -72 57 0 98 44 82 88 -7 19 -15 23 -41 20 -30
-3 -33 -6 -36 -40 -2 -23 -8 -38 -16 -38 -21 0 -46 34 -46 63 0 31 21 47 102
77 32 12 60 26 64 32 10 15 -9 28 -26 17z"/>
<path d="M7325 10426 c-117 -51 -161 -247 -90 -404 47 -105 132 -165 231 -164
93 1 154 51 154 128 0 63 -42 109 -99 109 -55 0 -92 -30 -112 -91 -17 -51 -29
-56 -63 -26 -46 41 -59 126 -26 179 44 72 131 88 275 48 78 -21 115 -26 166
-23 82 6 89 11 80 46 -7 22 -13 26 -35 24 -60 -7 -129 25 -205 94 -41 36 -89
73 -107 80 -42 17 -129 17 -169 0z"/>
<path d="M1794 10397 c-16 -9 -19 -17 -13 -32 4 -11 8 -43 8 -71 1 -41 -8 -67
-49 -148 -29 -57 -50 -111 -50 -129 0 -96 54 -166 147 -193 175 -51 402 106
392 271 -2 30 2 50 14 63 21 23 22 76 1 96 -22 23 -62 30 -90 17 -14 -6 -39
-11 -57 -11 -33 0 -71 -20 -94 -50 -23 -28 -15 -87 15 -121 23 -25 35 -31 77
-32 62 -2 69 -21 25 -71 -38 -43 -94 -62 -137 -45 -81 30 -113 107 -111 264 1
77 -3 111 -18 149 -21 55 -29 61 -60 43z"/>
<path d="M5233 10381 c-61 -38 -79 -107 -45 -171 53 -98 202 -85 233 21 15 49
1 105 -36 139 -35 32 -109 38 -152 11z"/>
<path d="M7992 10384 c-49 -34 -67 -112 -36 -160 38 -57 131 -73 178 -29 58
53 58 124 0 174 -27 24 -44 31 -77 31 -23 0 -53 -7 -65 -16z"/>
<path d="M520 10370 c-22 -22 -26 -60 -8 -78 32 -32 80 8 58 49 -15 27 -6 35
28 23 20 -7 28 -17 30 -39 3 -24 -5 -37 -47 -76 -52 -48 -63 -69 -36 -69 8 0
15 4 15 8 0 11 46 32 69 32 10 0 30 9 45 21 45 35 29 107 -31 138 -36 18 -100
14 -123 -9z"/>
<path d="M4941 10248 c-15 -41 14 -74 54 -64 29 7 43 49 25 71 -20 24 -69 19
-79 -7z"/>
<path d="M3239 10244 c-7 -8 -31 -25 -53 -37 -37 -18 -56 -20 -183 -18 -124 1
-148 -1 -180 -18 -121 -61 -157 -184 -93 -319 95 -201 348 -287 488 -166 77
66 94 149 42 208 -44 49 -89 62 -136 40 -41 -19 -74 -66 -74 -104 0 -14 9 -44
20 -68 23 -50 15 -58 -50 -49 -50 6 -99 41 -116 83 -46 109 26 206 202 274 81
32 148 76 186 125 19 25 19 27 3 45 -22 24 -38 25 -56 4z"/>
<path d="M5891 10172 c-37 -20 -71 -73 -71 -110 0 -57 63 -114 124 -114 18 0
48 9 67 21 52 32 59 28 59 -33 0 -63 -27 -109 -80 -137 -98 -52 -200 10 -286
174 -20 40 -48 86 -62 102 -25 31 -100 95 -111 95 -4 0 -14 -13 -23 -28 -17
-28 -17 -29 14 -58 49 -46 68 -98 68 -189 0 -70 -2 -77 -13 -55 -18 35 -74 70
-114 70 -126 0 -177 -165 -71 -230 72 -44 152 -17 188 62 l17 39 6 -38 c16
-101 137 -185 241 -167 103 17 218 109 271 217 32 67 44 168 26 235 -21 78
-120 161 -191 162 -14 0 -41 -8 -59 -18z"/>
<path d="M1112 10168 c-20 -20 -14 -66 9 -79 27 -14 64 1 72 30 11 44 -49 81
-81 49z"/>
<path d="M3995 10160 c-36 -14 -48 -37 -42 -83 7 -54 52 -97 101 -97 40 0 71
29 62 58 -14 44 -66 36 -66 -9 0 -34 -10 -37 -35 -9 -35 39 5 90 71 90 30 0
64 17 64 31 0 7 -10 9 -23 5 -12 -3 -43 1 -67 8 -25 8 -54 10 -65 6z"/>
<path d="M480 10130 c-16 -16 -18 -25 -10 -40 14 -26 27 -32 50 -25 28 9 35
43 14 66 -22 24 -29 24 -54 -1z"/>
<path d="M825 10125 c-65 -64 -2 -215 89 -215 60 0 98 54 64 88 -27 27 -78 7
-78 -30 0 -21 -20 -24 -38 -6 -19 19 -14 63 9 84 14 13 34 18 62 17 73 -3 127
7 127 23 0 10 -12 14 -37 14 -22 0 -55 11 -78 25 -51 32 -89 32 -120 0z"/>
<path d="M5000 10118 c0 -12 -10 -38 -23 -57 -58 -89 -59 -100 -18 -142 23
-23 38 -29 71 -29 64 0 124 39 131 85 6 38 -10 74 -36 81 -31 8 -55 -11 -55
-43 0 -18 8 -27 31 -35 29 -10 29 -11 13 -29 -22 -24 -56 -24 -78 0 -14 15
-17 35 -14 101 2 60 -1 84 -9 87 -8 3 -13 -4 -13 -19z"/>
<path d="M1386 10118 c-3 -7 -7 -31 -10 -52 -7 -55 -45 -107 -118 -162 -127
-96 -160 -138 -173 -225 -20 -134 91 -250 268 -280 120 -20 253 18 330 94 142
143 69 383 -103 337 -55 -15 -80 -50 -80 -114 0 -64 17 -90 78 -119 25 -12 47
-27 49 -34 6 -17 -67 -63 -111 -70 -48 -8 -120 20 -145 56 -51 72 -44 167 23
304 49 100 65 157 66 230 l0 47 -35 0 c-20 0 -37 -6 -39 -12z"/>
<path d="M6712 10069 c-63 -41 -79 -111 -39 -170 31 -46 63 -61 117 -55 35 3
51 11 77 40 98 106 -33 262 -155 185z"/>
<path d="M6400 10062 c-29 -9 -50 -35 -50 -62 0 -27 21 -53 50 -62 24 -8 69
20 76 47 11 44 -34 90 -76 77z"/>
<path d="M3525 10011 c-80 -21 -127 -71 -133 -145 -4 -48 -1 -57 21 -80 52
-52 137 -20 137 52 0 22 -9 40 -32 62 -32 30 -32 31 -14 45 41 31 117 11 142
-36 28 -56 10 -117 -62 -205 -32 -38 -64 -109 -64 -140 0 -8 10 -14 23 -14 16
1 28 13 42 43 18 35 33 48 93 77 87 44 119 72 133 121 24 78 -14 150 -102 194
-52 27 -136 39 -184 26z"/>
<path d="M238 9960 c-144 -76 -174 -351 -51 -473 90 -91 229 -86 269 10 29 69
-16 138 -91 138 -49 0 -79 -22 -100 -72 -9 -21 -19 -31 -27 -28 -24 10 -48 62
-48 105 0 140 141 173 306 72 49 -31 146 -62 192 -62 20 0 23 4 20 32 -2 27
-8 33 -34 39 -54 11 -94 42 -143 114 -57 82 -95 120 -134 134 -44 17 -118 12
-159 -9z"/>
<path d="M8112 9968 c-30 -30 1 -73 36 -51 23 14 25 29 7 47 -20 19 -27 20
-43 4z"/>
<path d="M7927 9903 c-27 -31 -22 -80 12 -114 31 -30 59 -36 92 -19 23 13 25
43 4 60 -19 16 -45 -3 -45 -32 0 -23 -19 -20 -34 5 -20 32 8 58 78 74 49 10
58 29 14 30 -18 0 -49 3 -68 7 -28 6 -39 4 -53 -11z"/>
<path d="M6395 9850 c-4 -18 -23 -43 -47 -63 -88 -70 -98 -82 -98 -129 0 -54
21 -85 74 -109 84 -38 179 -17 224 51 40 59 16 133 -44 133 -29 0 -64 -33 -64
-59 0 -16 30 -49 51 -57 24 -8 -16 -40 -50 -40 -75 0 -92 72 -41 173 32 64 40
130 16 130 -8 0 -17 -14 -21 -30z"/>
<path d="M4728 9820 c-52 -16 -98 -52 -126 -98 -25 -43 -27 -56 -27 -147 0
-92 3 -105 33 -170 92 -194 312 -260 425 -126 61 72 12 201 -76 201 -76 0
-127 -52 -127 -129 0 -50 -12 -58 -53 -34 -107 63 -103 209 8 267 36 19 57 21
200 21 129 0 170 4 213 19 50 17 53 20 47 45 -9 38 -15 41 -67 29 -61 -14
-119 2 -201 55 -106 69 -178 89 -249 67z"/>
<path d="M4074 9806 c-67 -30 -92 -100 -59 -170 40 -84 165 -86 215 -4 24 39
25 66 6 113 -25 60 -101 89 -162 61z"/>
<path d="M865 9778 c-72 -57 -62 -153 21 -193 44 -21 92 -7 129 36 79 94 -54
233 -150 157z"/>
<path d="M8187 9753 c-12 -11 -7 -50 7 -62 16 -14 51 -1 59 21 11 33 -42 66
-66 41z"/>
<path d="M7010 9736 c-108 -30 -204 -107 -235 -191 -26 -67 -17 -162 19 -210
39 -51 88 -71 139 -55 58 17 87 50 87 100 0 77 -51 130 -125 130 -35 0 -41 23
-14 59 46 62 138 80 200 38 73 -48 97 -157 64 -292 -17 -72 -19 -146 -4 -215
6 -27 12 -50 13 -50 2 0 17 5 33 11 30 10 30 12 30 72 -1 72 12 101 89 202 29
39 60 87 68 107 49 116 -20 255 -145 292 -62 19 -156 19 -219 2z"/>
<path d="M2260 9700 c-16 -16 -18 -25 -10 -40 5 -10 15 -22 21 -25 14 -9 51
25 45 42 -10 24 24 13 36 -12 16 -35 -11 -62 -71 -70 -64 -9 -81 -15 -81 -27
0 -6 10 -8 21 -5 12 3 42 -2 68 -12 70 -28 111 -5 111 62 0 31 -7 46 -34 73
-39 39 -76 44 -106 14z"/>
<path d="M7591 9693 c-67 -33 -93 -119 -48 -161 32 -30 71 -28 96 4 27 34 26
54 0 88 -25 32 -20 40 26 40 48 0 85 -36 85 -83 0 -46 -22 -78 -88 -130 -48
-38 -92 -93 -92 -114 0 -21 34 -18 53 6 28 32 48 42 122 57 101 21 143 69 132
149 -15 115 -179 197 -286 144z"/>
<path d="M8195 9630 c-4 -12 -24 -32 -46 -46 -74 -46 -70 -108 9 -141 43 -18
105 -4 122 27 16 29 12 68 -8 79 -39 21 -71 -31 -37 -59 19 -16 10 -30 -19
-30 -51 0 -60 51 -21 115 25 41 32 75 16 75 -5 0 -13 -9 -16 -20z"/>
<path d="M4355 9628 c-33 -20 -44 -41 -45 -86 0 -58 35 -92 96 -92 35 0 47 5
68 31 53 62 21 146 -59 155 -22 2 -49 -1 -60 -8z"/>
<path d="M2116 9557 c-36 -26 4 -84 42 -61 23 15 22 44 -4 60 -17 12 -23 12
-38 1z"/>
<path d="M3459 9441 c-17 -18 -29 -40 -29 -56 0 -37 50 -85 89 -85 38 0 79 36
87 76 4 24 0 37 -21 62 -36 43 -84 44 -126 3z"/>
<path d="M3850 9428 c-50 -34 -72 -71 -78 -126 -17 -183 186 -356 334 -286 81
39 107 115 58 173 -37 44 -91 44 -129 -1 -23 -28 -26 -37 -20 -80 7 -51 4 -55
-40 -38 -44 17 -75 58 -75 102 0 85 51 126 189 152 85 16 181 59 181 81 0 28
-26 36 -63 20 -49 -20 -93 -19 -162 5 -79 27 -153 26 -195 -2z"/>
<path d="M3098 9414 c-34 -18 -48 -43 -48 -83 0 -63 63 -90 114 -50 20 16 26
29 26 60 0 37 2 40 23 34 50 -15 80 -81 56 -123 -27 -47 -62 -64 -151 -72
-100 -9 -161 -32 -156 -57 2 -12 11 -17 28 -16 68 7 100 3 160 -22 71 -30 121
-30 166 0 95 62 54 264 -66 325 -46 23 -114 25 -152 4z"/>
<path d="M5323 9405 c-105 -29 -190 -91 -229 -166 -42 -83 -24 -212 37 -264
64 -53 177 -23 200 53 22 76 -23 146 -103 159 -54 8 -59 29 -16 69 54 49 106
61 163 40 105 -41 132 -150 80 -332 -23 -80 -27 -110 -23 -175 3 -44 7 -82 10
-85 3 -3 21 -2 39 1 34 6 34 7 34 63 0 74 21 114 105 207 81 89 102 129 102
199 1 72 -16 116 -60 159 -77 75 -220 106 -339 72z"/>
<path d="M714 9370 c-39 -16 -64 -59 -64 -111 0 -42 5 -55 33 -84 40 -45 89
-55 141 -30 45 22 66 59 66 121 0 39 -5 51 -34 80 -29 29 -41 34 -77 33 -24 0
-54 -4 -65 -9z"/>
<path d="M5915 9370 c-11 -4 -31 -19 -44 -34 -27 -28 -32 -87 -12 -125 15 -28
69 -61 99 -61 57 0 112 56 112 115 0 79 -83 135 -155 105z"/>
<path d="M6514 9370 c-28 -11 -61 -54 -69 -89 -13 -61 36 -116 106 -116 31 0
46 8 79 40 l40 39 16 -39 c38 -91 -25 -186 -123 -185 -48 1 -113 38 -186 106
-65 62 -151 114 -188 114 -14 0 -37 -47 -27 -55 2 -1 17 -10 35 -19 53 -27 81
-66 115 -160 48 -136 107 -188 209 -188 156 0 286 221 234 398 -33 114 -152
190 -241 154z"/>
<path d="M2510 9348 c-73 -28 -160 -115 -183 -182 -22 -64 -21 -111 2 -161 43
-95 138 -126 196 -65 42 44 40 93 -4 132 -29 26 -39 29 -70 23 -70 -13 -76
-12 -73 15 18 132 174 152 241 31 13 -23 30 -68 38 -98 18 -71 46 -130 79
-167 25 -28 26 -29 45 -10 18 19 18 20 -6 68 -14 27 -25 63 -24 80 l1 31 9
-32 c9 -33 50 -63 84 -63 26 0 75 55 75 85 0 34 -44 75 -82 75 -18 0 -39 -10
-55 -26 l-26 -26 7 24 c3 12 9 50 12 83 10 91 -27 156 -109 190 -49 20 -91 18
-157 -7z"/>
<path d="M256 9344 c-43 -43 5 -120 60 -96 13 7 29 23 36 36 24 55 -53 103
-96 60z"/>
<path d="M8055 9287 c-56 -47 -24 -157 46 -157 31 0 54 23 45 45 -10 27 -38
30 -56 7 -15 -18 -20 -19 -30 -7 -31 37 26 79 76 56 31 -14 84 -14 84 -1 0 6
-8 10 -17 10 -9 0 -31 13 -48 29 -44 42 -68 46 -100 18z"/>
<path d="M7486 9249 c-50 -40 -23 -129 40 -129 82 0 111 105 38 139 -35 16
-48 14 -78 -10z"/>
<path d="M8257 9264 c-27 -27 20 -77 49 -53 23 19 13 53 -16 57 -14 2 -29 0
-33 -4z"/>
<path d="M1769 9217 c-67 -19 -110 -48 -144 -96 -25 -36 -30 -52 -30 -101 0
-48 4 -63 24 -84 36 -38 82 -50 124 -32 42 17 59 46 61 99 1 35 -4 44 -43 77
l-43 37 23 17 c14 10 44 16 75 16 42 0 59 -5 83 -26 76 -64 62 -163 -39 -280
-60 -68 -105 -146 -112 -193 -2 -19 3 -26 24 -32 25 -6 29 -3 49 37 26 55 62
83 161 124 93 38 123 60 147 108 28 57 32 88 19 139 -32 129 -234 230 -379
190z"/>
<path d="M300 9159 c0 -23 -12 -43 -50 -83 -57 -60 -69 -99 -46 -143 44 -86
225 -81 271 7 34 65 9 130 -50 130 -64 0 -74 -81 -14 -102 31 -11 31 -11 11
-31 -26 -26 -68 -25 -95 2 -26 26 -27 74 -3 144 23 68 21 107 -4 107 -16 0
-20 -7 -20 -31z"/>
<path d="M4328 9179 c-24 -14 -24 -71 0 -92 23 -21 41 -21 70 -1 25 17 31 71
10 92 -15 15 -57 15 -80 1z"/>
<path d="M960 9115 l-23 -24 31 -35 c46 -52 56 -95 49 -210 -8 -132 3 -176 62
-237 53 -55 109 -75 180 -64 101 15 213 102 267 206 25 48 29 65 29 146 0 86
-2 94 -30 135 -82 115 -228 116 -266 1 -14 -43 1 -83 44 -119 33 -28 72 -29
134 -3 44 18 57 4 48 -51 -15 -88 -103 -146 -185 -121 -61 18 -107 72 -162
190 -48 103 -102 182 -137 201 -14 7 -24 4 -41 -15z"/>
<path d="M4626 9078 c-21 -30 -20 -51 4 -73 19 -17 42 -17 83 0 27 11 22 -41
-8 -70 -44 -45 -90 -26 -144 60 -45 71 -87 106 -97 80 -4 -9 3 -26 16 -40 16
-17 23 -40 27 -87 6 -73 21 -101 65 -124 43 -22 95 -6 141 46 45 49 63 108 47
155 -22 68 -102 99 -134 53z"/>
<path d="M3522 9054 c-32 -22 -26 -58 10 -62 22 -3 29 2 34 22 7 28 30 25 40
-6 10 -31 -22 -58 -70 -58 -50 0 -86 -9 -86 -21 0 -5 11 -9 24 -9 13 0 43 -8
66 -19 49 -22 75 -18 97 15 46 70 -50 185 -115 138z"/>
<path d="M8245 9009 c-52 -30 -62 -93 -20 -134 28 -29 54 -31 94 -10 32 16 41
33 41 75 0 55 -67 96 -115 69z"/>
<path d="M7693 8990 c-111 -23 -193 -110 -193 -206 0 -109 112 -172 178 -101
49 52 35 125 -29 158 -22 11 -39 24 -39 29 0 6 15 19 33 31 43 27 117 22 152
-11 30 -28 49 -90 40 -133 -4 -18 -29 -77 -56 -132 -32 -64 -52 -119 -56 -152
l-6 -53 32 0 c23 0 31 4 31 18 0 46 46 105 125 162 90 64 121 103 130 164 22
143 -161 264 -342 226z"/>
<path d="M773 8940 c-21 -12 -35 -31 -42 -54 -29 -105 74 -183 167 -126 62 38
68 122 12 173 -37 33 -90 36 -137 7z"/>
<path d="M7224 8950 c-32 -13 -72 -67 -80 -106 -19 -101 102 -180 192 -125 35
21 64 75 64 118 0 80 -99 144 -176 113z"/>
<path d="M3367 8919 c-37 -21 -8 -77 33 -64 13 4 20 15 20 30 0 29 -28 47 -53
34z"/>
<path d="M5925 8910 c-65 -20 -125 -103 -125 -174 0 -75 91 -135 133 -88 44
49 -1 109 -64 85 -28 -11 -29 -10 -29 18 0 34 31 69 60 69 40 0 78 -29 101
-76 33 -68 78 -117 95 -103 11 9 9 16 -8 40 -17 22 -22 46 -24 101 -3 63 -6
75 -31 99 -33 32 -66 41 -108 29z"/>
<path d="M4996 8825 c-30 -32 -37 -70 -23 -114 21 -62 102 -69 102 -10 0 18
-6 25 -24 27 -13 2 -28 -1 -34 -7 -17 -17 -27 -13 -27 12 0 54 44 61 109 17
39 -27 71 -38 71 -26 0 3 -13 18 -30 34 -16 17 -30 37 -30 46 0 20 -38 46 -68
46 -12 0 -33 -11 -46 -25z"/>
<path d="M2855 8806 c-28 -29 -40 -66 -31 -102 12 -46 50 -74 101 -74 36 0 51
5 69 25 42 45 41 107 -1 150 -35 35 -104 35 -138 1z"/>
<path d="M3965 8762 c-66 -22 -151 -104 -161 -156 -24 -129 53 -223 149 -182
41 17 57 41 57 88 0 46 -22 73 -75 94 -25 9 -45 20 -45 24 0 5 14 20 30 34 40
34 87 42 133 22 82 -34 99 -132 47 -274 -22 -60 -30 -100 -30 -147 l0 -65 30
0 c27 0 30 3 30 30 0 53 29 102 105 181 41 42 79 88 85 103 27 72 -1 174 -59
215 -72 52 -198 66 -296 33z"/>
<path d="M8250 8755 c-5 -14 -10 -30 -10 -34 0 -11 -61 -66 -102 -90 -108 -64
-127 -176 -43 -249 44 -39 97 -56 170 -56 109 1 184 60 193 153 3 40 0 52 -21
76 -49 57 -137 28 -137 -46 0 -28 17 -52 56 -76 18 -12 18 -13 -5 -33 -59 -51
-151 -2 -151 80 0 41 12 72 64 162 33 57 40 130 14 136 -12 2 -21 -6 -28 -23z"/>
<path d="M5225 8747 c-10 -8 -16 -23 -13 -38 2 -19 9 -24 33 -24 25 0 31 4 33
27 4 34 -26 54 -53 35z"/>
<path d="M6586 8734 c-33 -32 -8 -84 39 -84 13 0 31 10 40 23 13 19 17 20 25
7 16 -24 11 -66 -8 -83 -29 -26 -74 -21 -122 14 -38 27 -99 59 -115 59 -16 0
-1 -29 24 -48 16 -12 42 -45 58 -74 22 -41 36 -56 63 -64 116 -38 201 146 110
238 -33 32 -88 38 -114 12z"/>
<path d="M1914 8726 c-71 -32 -86 -110 -33 -171 27 -30 37 -35 74 -35 81 0
132 71 102 141 -28 66 -85 91 -143 65z"/>
<path d="M4396 8724 c-9 -8 -16 -22 -16 -29 0 -7 7 -21 16 -29 30 -30 74 -13
74 29 0 42 -44 59 -74 29z"/>
<path d="M6292 8708 c-18 -18 -14 -63 8 -83 45 -41 110 18 76 70 -18 27 -63
34 -84 13z"/>
<path d="M4642 8698 c-17 -17 -15 -53 3 -68 12 -10 21 -10 41 -1 33 15 34 15
34 -12 0 -27 -28 -57 -54 -57 -10 0 -43 25 -75 55 -54 51 -81 67 -81 47 0 -5
9 -17 19 -26 11 -10 23 -36 26 -59 8 -45 52 -97 82 -97 55 0 113 72 113 140 0
57 -75 111 -108 78z"/>
<path d="M654 8679 c-36 -40 -55 -44 -200 -44 -136 0 -142 -1 -182 -28 -151
-99 -85 -340 118 -435 145 -68 313 8 313 141 0 34 -6 46 -36 74 -57 52 -128
38 -161 -32 -16 -33 -16 -37 3 -81 12 -25 18 -50 15 -55 -9 -14 -46 -10 -92
11 -33 15 -47 29 -62 63 -24 53 -14 100 30 150 30 34 38 39 180 106 47 22 100
55 119 75 l34 35 -24 20 c-30 25 -32 25 -55 0z"/>
<path d="M3455 8691 c-138 -34 -259 -154 -280 -278 -15 -91 43 -196 122 -224
68 -23 153 37 153 107 0 79 -55 128 -138 122 -56 -4 -64 12 -30 62 33 48 70
72 119 77 59 6 106 -21 143 -81 27 -43 30 -57 37 -179 7 -128 24 -205 55 -255
14 -21 15 -22 42 -5 15 9 28 18 30 18 1 1 -5 19 -14 41 -24 57 -14 117 39 231
38 80 47 110 47 154 -1 97 -63 185 -147 208 -42 12 -132 13 -178 2z"/>
<path d="M2459 8661 c-22 -23 -29 -39 -29 -69 0 -54 7 -70 41 -87 46 -24 90
-19 133 17 46 38 56 29 56 -50 0 -48 -4 -58 -34 -88 -30 -30 -40 -34 -88 -34
-68 0 -110 26 -197 121 -54 59 -161 132 -175 119 -2 -3 -7 -16 -10 -30 -5 -21
1 -30 34 -52 45 -31 68 -74 100 -185 23 -83 57 -128 115 -154 77 -35 142 -20
219 51 97 90 133 244 83 354 -34 73 -97 116 -170 116 -40 0 -53 -5 -78 -29z"/>
<path d="M7087 8656 c-159 -66 -263 -232 -228 -363 33 -121 144 -187 225 -134
57 38 71 101 37 157 -27 45 -72 61 -129 45 -27 -7 -49 -8 -54 -3 -17 17 11 89
47 121 65 57 147 50 206 -16 39 -45 57 -87 75 -177 15 -74 58 -173 93 -216
l20 -25 25 24 24 23 -24 45 c-30 57 -31 109 -3 216 28 110 23 182 -17 239 -61
87 -178 113 -297 64z"/>
<path d="M6162 8624 c-24 -16 -29 -53 -12 -85 8 -13 21 -19 45 -19 59 0 82 62
39 105 -20 19 -44 19 -72 -1z"/>
<path d="M2858 8585 c-35 -20 -58 -64 -58 -111 0 -53 53 -104 108 -104 70 0
133 77 117 143 -17 65 -109 105 -167 72z"/>
<path d="M5477 8572 c-28 -17 -67 -84 -67 -116 0 -10 8 -34 17 -53 45 -96 185
-98 233 -3 24 47 25 69 6 115 -28 67 -126 96 -189 57z"/>
<path d="M1674 8501 c-92 -56 -52 -204 55 -204 107 0 157 119 81 195 -34 34
-89 38 -136 9z"/>
<path d="M5133 8508 c-24 -11 -53 -64 -53 -96 0 -29 36 -69 74 -82 109 -36
175 125 71 174 -38 18 -61 19 -92 4z"/>
<path d="M1155 8435 c-18 -17 -25 -35 -25 -63 0 -100 141 -115 166 -17 20 80
-83 139 -141 80z"/>
<path d="M6273 8425 c-31 -13 -63 -59 -63 -90 0 -29 28 -71 55 -83 56 -26 106
-5 131 54 20 48 -2 99 -50 119 -41 18 -33 18 -73 0z"/>
<path d="M4625 8413 c-11 -3 -35 -16 -54 -30 -116 -88 -61 -338 93 -412 106
-52 236 5 236 103 0 38 -46 86 -82 86 -62 0 -97 -35 -98 -97 0 -53 -16 -56
-65 -10 -48 43 -55 89 -23 137 36 54 78 70 184 70 83 0 168 16 203 39 10 7 11
13 1 30 -10 19 -16 21 -43 14 -56 -13 -96 -5 -179 36 -78 40 -118 47 -173 34z"/>
<path d="M5784 8382 c-67 -24 -97 -44 -130 -88 -72 -94 -19 -250 78 -230 46 9
68 33 68 75 0 51 -23 80 -71 87 -47 8 -49 23 -8 58 45 38 105 36 145 -5 27
-28 29 -36 28 -102 0 -40 -4 -95 -8 -124 -5 -28 -5 -72 -2 -97 6 -39 11 -46
30 -46 22 0 24 5 28 58 4 52 10 67 61 136 52 72 57 83 57 131 0 94 -62 151
-172 161 -36 3 -69 -1 -104 -14z"/>
<path d="M7684 8286 c-58 -58 -42 -141 32 -172 69 -29 144 26 144 107 0 46
-56 99 -105 99 -29 0 -45 -8 -71 -34z"/>
<path d="M3003 8288 c-18 -9 -21 -16 -15 -37 19 -68 9 -114 -46 -208 -64 -112
-75 -167 -44 -235 26 -61 66 -96 130 -114 159 -47 366 66 402 218 27 110 -40
218 -135 218 -29 0 -45 -8 -71 -34 -40 -40 -44 -75 -14 -124 22 -36 54 -52
106 -52 46 0 46 -28 -1 -74 -72 -72 -169 -55 -217 37 -20 37 -22 58 -23 187
-1 103 -6 156 -17 184 -17 45 -24 49 -55 34z"/>
<path d="M1308 8240 c-15 -9 -15 -13 -2 -38 20 -39 17 -76 -12 -164 -18 -53
-24 -87 -20 -110 16 -88 81 -134 173 -125 176 18 293 212 197 326 -65 78 -191
22 -154 -69 16 -39 41 -52 88 -48 32 3 37 0 40 -20 5 -36 -48 -82 -96 -82 -74
0 -113 56 -131 191 -9 62 -43 149 -59 149 -4 0 -15 -5 -24 -10z"/>
<path d="M6581 8195 c-37 -43 -43 -101 -12 -129 37 -34 102 2 71 39 -10 11
-23 15 -42 11 -22 -4 -28 -2 -28 12 0 24 19 42 46 42 20 0 74 -50 74 -69 0 -4
9 -17 21 -29 25 -28 45 -19 24 11 -8 12 -15 40 -15 62 0 58 -22 85 -70 85 -31
0 -44 -6 -69 -35z"/>
<path d="M5311 8186 c-7 -8 -11 -27 -9 -43 6 -51 88 -41 88 11 0 42 -53 63
-79 32z"/>
<path d="M2036 8139 c-31 -24 -33 -48 -7 -80 16 -20 23 -22 47 -14 20 7 32 20
39 43 11 37 16 39 40 12 24 -26 22 -67 -4 -93 -19 -19 -32 -22 -102 -20 -44 1
-91 -2 -104 -7 -35 -13 -23 -38 16 -32 21 3 44 -4 79 -26 65 -41 84 -45 125
-32 118 39 63 270 -64 270 -24 0 -49 -8 -65 -21z"/>
<path d="M6323 8153 c-18 -3 -23 -11 -23 -34 0 -46 -23 -82 -95 -145 -78 -68
-97 -101 -97 -166 0 -65 35 -118 99 -149 39 -20 64 -24 133 -24 76 0 91 3 139
30 82 45 122 119 107 198 -10 54 -47 87 -96 87 -106 0 -126 -137 -25 -170 42
-14 43 -22 9 -49 -55 -43 -130 -34 -168 21 -27 38 -20 118 19 218 23 60 35
106 35 140 0 27 -3 49 -7 49 -5 -1 -18 -4 -30 -6z"/>
<path d="M910 8090 c-27 -27 -26 -75 2 -94 32 -23 58 -20 90 11 24 23 30 25
38 13 17 -26 11 -79 -10 -100 -43 -43 -96 -35 -168 23 -38 31 -107 66 -129 67
-27 0 -12 -36 22 -54 24 -13 43 -37 67 -84 39 -77 74 -107 126 -107 137 0 199
235 86 324 -35 28 -97 28 -124 1z"/>
<path d="M4076 8079 c-43 -37 -55 -83 -32 -128 17 -33 62 -61 96 -61 51 0 111
64 110 117 -1 47 -62 103 -112 103 -16 0 -42 -12 -62 -31z"/>
<path d="M5073 8099 c-54 -28 -54 -118 1 -173 40 -39 79 -49 123 -31 56 23 54
95 -2 95 -28 0 -42 -17 -47 -55 l-3 -30 -27 27 c-16 15 -28 34 -28 43 0 25 36
53 82 65 57 14 112 39 104 47 -4 4 -30 7 -59 8 -28 1 -68 5 -87 8 -20 4 -45 2
-57 -4z"/>
<path d="M7806 8089 c-73 -58 15 -167 92 -113 33 23 31 86 -4 113 -15 12 -34
21 -44 21 -10 0 -29 -9 -44 -21z"/>
<path d="M542 8057 c-12 -13 -22 -33 -22 -46 0 -28 42 -71 70 -71 26 0 70 43
70 68 0 11 -9 31 -21 46 -26 33 -68 34 -97 3z"/>
<path d="M5472 8054 c-30 -21 -29 -59 3 -80 23 -15 27 -15 50 0 30 20 33 56 7
79 -23 21 -32 21 -60 1z"/>
<path d="M6777 8044 c-14 -14 -7 -54 12 -64 28 -15 71 21 55 47 -11 19 -54 29
-67 17z"/>
<path d="M7498 8002 c-59 -36 -73 -124 -30 -182 26 -35 84 -53 131 -40 133 35
105 241 -32 240 -23 0 -54 -8 -69 -18z"/>
<path d="M1787 7952 c-38 -41 -12 -92 45 -92 31 0 48 18 48 50 0 52 -60 78
-93 42z"/>
<path d="M3750 7947 c-40 -20 -70 -74 -70 -124 0 -38 6 -51 33 -78 88 -88 225
-26 214 98 -5 53 -26 83 -74 103 -40 17 -71 17 -103 1z"/>
<path d="M7024 7936 c-11 -29 0 -51 26 -51 21 0 25 5 25 30 0 24 -5 31 -23 33
-13 2 -24 -3 -28 -12z"/>
<path d="M2549 7919 c-22 -22 -21 -37 3 -52 23 -15 48 -1 48 28 0 23 2 24 20
15 41 -22 10 -90 -42 -90 -24 0 -68 -21 -68 -33 0 -5 11 -6 25 -3 14 4 44 2
66 -4 33 -9 45 -8 65 5 43 28 26 113 -27 141 -39 19 -65 18 -90 -7z"/>
<path d="M7212 7928 c-17 -17 -15 -36 6 -47 13 -7 23 -6 30 1 16 16 35 -3 26
-25 -13 -35 -51 -32 -94 7 -46 41 -88 52 -53 14 11 -13 24 -34 28 -48 23 -78
99 -80 131 -3 28 67 -30 145 -74 101z"/>
<path d="M5440 7901 c-5 -11 -27 -25 -47 -31 -77 -23 -94 -33 -109 -62 -20
-38 -11 -78 24 -110 40 -38 65 -48 117 -48 38 0 52 5 76 29 32 33 38 71 13 95
-43 43 -104 -7 -71 -57 18 -28 13 -37 -18 -37 -30 0 -55 30 -55 66 0 22 11 41
41 69 36 35 69 83 69 100 0 13 -30 3 -40 -14z"/>
<path d="M242 7868 c-17 -17 -15 -44 4 -62 22 -23 41 -20 59 8 13 19 14 29 5
45 -12 23 -49 28 -68 9z"/>
<path d="M5699 7811 c-20 -20 -29 -39 -29 -61 0 -40 47 -90 85 -90 69 0 119
63 95 120 -27 66 -101 81 -151 31z"/>
<path d="M5919 7811 c-60 -60 -24 -151 59 -151 91 0 123 123 43 165 -44 22
-69 19 -102 -14z"/>
<path d="M6757 7823 c-12 -12 -7 -50 8 -63 8 -6 23 -9 34 -5 25 8 36 41 21 60
-13 15 -51 20 -63 8z"/>
<path d="M4057 7810 c-57 -15 -90 -34 -129 -78 -71 -78 -76 -172 -14 -229 30
-28 44 -33 84 -33 54 0 85 17 107 60 24 46 19 91 -16 139 -38 51 -30 65 39 65
91 0 162 -67 162 -151 0 -83 -55 -153 -185 -236 -70 -44 -144 -117 -170 -168
-13 -25 -12 -27 20 -42 l33 -16 28 36 c36 48 111 80 204 88 106 9 174 30 216
67 115 102 103 261 -31 387 -96 91 -242 137 -348 111z"/>
<path d="M4762 7800 c-117 -72 -96 -278 27 -268 26 2 39 10 51 30 18 33 7 58
-33 72 -22 8 -31 6 -51 -13 l-25 -24 -7 29 c-12 45 14 78 63 82 38 3 46 -1 99
-52 63 -60 90 -74 106 -58 8 8 1 19 -20 37 -20 17 -36 44 -46 80 -28 93 -94
128 -164 85z"/>
<path d="M310 7733 c-1 -21 -7 -49 -15 -63 -21 -37 -19 -93 5 -115 58 -53 190
12 190 93 0 49 -62 81 -90 47 -20 -24 2 -63 37 -67 l28 -3 -22 -22 c-28 -28
-47 -29 -73 -3 -14 14 -20 33 -20 64 0 48 -17 106 -31 106 -5 0 -9 -17 -9 -37z"/>
<path d="M2431 7751 c-13 -24 8 -55 34 -50 28 6 42 34 26 53 -18 22 -48 20
-60 -3z"/>
<path d="M3313 7720 c-40 -24 -53 -48 -53 -100 0 -61 41 -100 105 -100 48 0
54 5 109 75 l24 29 21 -34 c44 -72 19 -170 -52 -203 -67 -32 -143 -14 -253 60
-67 45 -120 67 -181 78 -41 6 -43 6 -43 -19 0 -14 0 -29 -1 -33 0 -3 21 -14
47 -24 61 -23 95 -57 135 -132 48 -91 92 -134 155 -154 47 -14 62 -15 101 -5
143 39 229 234 179 406 -40 136 -193 218 -293 156z"/>
<path d="M6820 7693 c-1 -21 -7 -49 -15 -63 -20 -36 -18 -77 5 -100 52 -52
170 4 170 81 0 42 -18 62 -52 57 -18 -2 -23 -9 -23 -33 0 -24 5 -31 23 -33 29
-4 26 -32 -5 -43 -36 -13 -64 18 -70 76 -6 72 -12 95 -23 95 -6 0 -10 -17 -10
-37z"/>
<path d="M1678 7684 c-35 -19 -58 -63 -58 -111 0 -45 20 -77 60 -98 85 -44
180 14 180 110 0 85 -104 142 -182 99z"/>
<path d="M7485 7659 c-28 -3 -69 -16 -92 -27 -52 -27 -111 -95 -119 -139 -16
-87 29 -163 97 -163 54 0 89 31 89 81 0 46 -25 77 -71 86 -43 8 -46 23 -10 55
25 22 41 28 77 28 92 0 132 -87 98 -211 -20 -74 -29 -159 -20 -195 5 -19 12
-25 29 -22 17 2 23 11 25 38 5 64 12 80 68 146 69 82 84 109 84 157 0 114
-108 185 -255 166z"/>
<path d="M2725 7616 c-49 -22 -78 -60 -78 -104 0 -49 16 -78 56 -102 107 -65
222 51 157 158 -11 18 -36 40 -55 48 -41 17 -42 17 -80 0z"/>
<path d="M5066 7609 c-30 -23 -33 -45 -10 -77 30 -43 104 -17 104 36 0 25 -33
62 -54 62 -7 0 -25 -9 -40 -21z"/>
<path d="M5686 7562 c-24 -46 -69 -78 -143 -103 -163 -54 -198 -192 -76 -299
146 -129 383 -67 383 99 0 57 -33 91 -89 91 -77 0 -106 -81 -51 -143 35 -40
26 -57 -32 -57 -49 0 -81 16 -101 50 -34 57 -11 123 76 216 31 34 66 82 77
108 18 44 19 47 2 53 -9 3 -20 8 -24 10 -4 2 -14 -9 -22 -25z"/>
<path d="M2000 7565 c-72 -21 -128 -55 -174 -106 -50 -54 -66 -96 -66 -166 1
-145 126 -220 223 -133 27 24 32 35 32 73 0 61 -28 97 -90 118 -27 10 -51 22
-53 29 -6 16 37 60 75 76 75 32 153 5 190 -66 32 -60 30 -136 -4 -242 -22 -66
-28 -102 -28 -175 0 -50 2 -94 6 -97 3 -3 18 -2 35 3 26 7 30 12 35 62 10 80
20 100 105 191 87 94 102 120 111 183 14 102 -51 204 -153 239 -70 25 -177 29
-244 11z"/>
<path d="M600 7470 c-27 -27 -26 -66 4 -85 33 -22 67 -7 81 35 l11 33 22 -23
c30 -33 28 -73 -4 -99 -31 -24 -55 -26 -134 -9 -65 13 -112 5 -104 -17 4 -8
17 -15 31 -15 28 0 54 -13 103 -50 45 -36 76 -42 116 -25 85 35 86 189 1 257
-31 25 -101 24 -127 -2z"/>
<path d="M1095 7476 c-60 -19 -93 -44 -119 -90 -34 -59 -40 -113 -21 -188 63
-248 324 -364 470 -209 26 28 30 40 30 87 0 50 -3 59 -33 85 -46 41 -99 40
-148 -3 l-36 -32 5 -64 6 -65 -34 6 c-69 11 -115 67 -115 140 0 96 81 155 241
176 98 13 215 58 226 88 3 8 -3 23 -14 34 -19 19 -20 19 -68 -2 -57 -25 -102
-22 -204 15 -89 32 -138 38 -186 22z"/>
<path d="M5990 7461 c-50 -49 -52 -110 -5 -156 46 -47 107 -45 156 5 23 23 29
37 29 73 0 37 -6 51 -31 76 -25 25 -39 31 -76 31 -36 0 -50 -6 -73 -29z"/>
<path d="M5066 7454 c-9 -8 -16 -22 -16 -29 0 -18 28 -45 45 -45 8 0 22 11 31
25 13 20 19 23 30 14 19 -16 18 -54 -3 -74 -12 -12 -26 -15 -52 -11 -88 15
-141 18 -141 8 0 -5 12 -12 28 -15 15 -3 45 -22 66 -42 84 -75 171 -22 153 92
-12 74 -98 121 -141 77z"/>
<path d="M6394 7425 c-14 -37 26 -69 53 -42 22 22 8 57 -23 57 -14 0 -27 -7
-30 -15z"/>
<path d="M6615 7378 c-32 -17 -45 -39 -45 -79 0 -30 7 -43 32 -64 39 -33 81
-29 117 12 58 67 -26 174 -104 131z"/>
<path d="M4852 7354 c-29 -20 -28 -50 2 -69 19 -13 29 -14 45 -5 28 14 29 65
2 80 -25 13 -22 13 -49 -6z"/>
<path d="M6387 7315 c-10 -14 -25 -25 -33 -25 -21 0 -64 -46 -64 -68 0 -11 12
-31 26 -46 33 -33 111 -37 137 -8 36 39 10 101 -31 75 -23 -14 -25 -29 -7 -46
21 -21 19 -27 -8 -27 -54 0 -61 46 -17 104 29 38 38 66 23 66 -5 0 -16 -12
-26 -25z"/>
<path d="M326 7308 c-9 -12 -16 -30 -16 -40 0 -24 35 -58 60 -58 26 0 60 34
60 60 0 28 -35 60 -64 60 -14 0 -32 -10 -40 -22z"/>
<path d="M7046 7289 c-33 -38 -33 -73 -1 -104 30 -31 73 -32 108 -5 38 30 47
25 47 -29 0 -65 -34 -101 -94 -101 -55 0 -94 26 -150 99 -54 70 -132 123 -147
100 -14 -22 -11 -28 25 -60 37 -32 47 -56 66 -154 33 -164 211 -187 308 -39
75 112 61 248 -30 304 -51 31 -101 27 -132 -11z"/>
<path d="M4365 7245 c-84 -42 -130 -141 -123 -264 5 -91 32 -147 91 -195 31
-25 49 -31 102 -34 63 -4 66 -3 100 31 22 22 35 45 35 61 0 107 -127 139 -179
46 -12 -22 -27 -40 -32 -40 -18 0 -49 65 -49 102 0 43 34 89 80 108 42 17 109
5 183 -34 69 -37 111 -51 175 -61 42 -7 42 -6 42 23 0 26 -5 31 -32 37 -53 11
-92 41 -136 102 -22 32 -53 70 -69 86 -49 46 -132 60 -188 32z"/>
<path d="M2660 7231 c-73 -23 -95 -36 -147 -84 -106 -98 -120 -232 -33 -319
32 -32 44 -38 81 -38 77 0 127 64 107 137 -12 47 -51 73 -109 73 -42 0 -49 3
-49 20 0 30 57 89 99 100 69 18 125 -11 164 -85 19 -35 21 -55 20 -170 -2
-161 18 -242 57 -237 37 4 43 16 30 62 -15 57 -6 91 52 194 57 99 68 150 48
222 -33 117 -174 172 -320 125z"/>
<path d="M6019 7128 c-13 -51 -68 -107 -153 -158 -71 -43 -107 -93 -114 -160
-6 -68 3 -95 49 -144 103 -112 313 -128 425 -32 53 45 74 90 74 159 0 45 -5
61 -26 86 -63 76 -184 34 -184 -64 0 -39 16 -62 61 -91 39 -24 40 -26 23 -45
-40 -44 -135 -42 -181 4 -55 54 -48 138 20 255 45 78 77 165 77 209 0 19 -5
23 -30 23 -26 0 -30 -5 -41 -42z"/>
<path d="M4965 7102 c-28 -6 -72 -49 -79 -78 -14 -54 44 -124 103 -124 55 0
101 49 101 107 0 55 -68 107 -125 95z"/>
<path d="M7546 7039 c-43 -51 -32 -115 25 -145 63 -32 134 14 134 88 0 83
-105 121 -159 57z"/>
<path d="M3784 7030 c-41 -16 -74 -68 -74 -116 0 -87 47 -134 136 -134 41 0
51 5 85 39 34 34 39 44 39 86 0 54 -21 95 -60 119 -30 17 -91 20 -126 6z"/>
<path d="M5300 6971 c-152 -49 -260 -212 -230 -347 6 -26 16 -54 22 -61 8 -11
-107 -13 -624 -13 l-634 0 4 39 c6 56 -13 105 -54 140 -60 53 -117 53 -157 -1
-19 -25 -19 -28 -3 -52 11 -18 25 -26 44 -26 36 0 52 17 52 52 0 15 4 28 8 28
18 0 52 -47 52 -72 0 -46 -32 -62 -132 -69 -67 -4 -93 -9 -102 -21 -11 -15
-71 -17 -630 -18 l-617 -1 15 23 c14 23 19 51 17 96 -1 12 -16 38 -34 58 -80
87 -217 30 -217 -91 0 -22 7 -51 16 -63 l15 -22 -132 0 c-104 0 -130 3 -121
12 15 15 16 72 2 99 -13 23 -62 26 -80 4 -19 -22 -4 -64 25 -71 28 -7 31 -14
13 -32 -17 -17 -64 -15 -83 4 -13 13 -15 34 -13 107 2 65 0 91 -9 94 -9 3 -13
-5 -13 -24 0 -16 -15 -49 -35 -77 -23 -33 -35 -61 -35 -83 l0 -33 -96 0 c-95
0 -96 0 -90 23 15 62 -41 147 -99 147 -56 0 -85 -57 -43 -84 23 -14 52 3 56
33 5 33 42 9 42 -28 0 -44 -23 -56 -108 -56 -49 0 -77 -4 -79 -12 -3 -7 9 -13
29 -16 24 -3 19 -4 -18 -5 -35 -1 -56 3 -64 13 -28 34 -90 2 -74 -38 3 -8 -8
-70 -25 -138 -41 -173 -54 -259 -53 -369 0 -100 20 -204 52 -276 l19 -44 -87
-121 c-48 -67 -206 -271 -352 -453 -389 -485 -498 -634 -575 -786 -117 -231
-83 -323 170 -460 83 -44 113 -55 208 -71 121 -22 169 -44 192 -89 21 -40 19
-65 -9 -147 -13 -39 -29 -96 -36 -126 -8 -41 -27 -77 -70 -137 -65 -90 -79
-132 -61 -191 15 -50 48 -88 127 -146 46 -34 64 -53 64 -70 0 -13 -25 -52 -63
-95 -115 -132 -116 -143 -7 -270 44 -51 95 -122 113 -158 49 -99 45 -142 -35
-380 -122 -362 -119 -463 18 -641 95 -124 233 -213 408 -263 l88 -26 492 0
c313 0 514 -4 551 -11 130 -24 253 -107 325 -219 110 -172 201 -543 188 -770
l-4 -70 2073 0 c1553 0 2073 3 2073 11 0 7 -20 116 -45 243 -182 920 -296
1890 -256 2167 32 229 160 484 454 908 298 429 350 529 476 914 137 418 201
807 201 1222 0 239 -15 408 -56 617 -24 126 -89 360 -118 430 l-16 37 -288 5
c-158 3 -303 5 -322 6 -19 0 -59 -2 -89 -6 -48 -5 -53 -4 -47 11 4 11 -3 28
-19 46 -30 36 -45 88 -45 154 0 188 -213 219 -317 46 -53 -89 -53 -176 2 -235
l24 -26 -419 0 -420 0 -17 27 c-13 20 -19 56 -23 152 -6 141 -21 181 -84 221
-38 23 -109 33 -146 21z m20 -181 c45 -23 64 -47 119 -157 l41 -83 -75 0 -75
0 0 34 c0 68 -82 106 -151 71 -37 -19 -49 -13 -49 26 0 65 61 129 123 129 15
0 45 -9 67 -20z m1246 -32 c20 -17 49 -55 66 -84 16 -29 47 -69 69 -88 l39
-36 -101 0 c-93 0 -101 1 -94 18 21 47 17 68 -15 95 -38 32 -40 32 -89 7 -38
-19 -39 -19 -44 -1 -15 59 33 121 94 121 29 0 47 -8 75 -32z"/>
<path d="M1645 6894 c-43 -43 19 -110 65 -69 25 23 26 47 2 68 -23 21 -46 21
-67 1z"/>
<path d="M920 6830 c-23 -23 -24 -30 -7 -54 9 -12 23 -17 42 -14 27 3 30 7 30
37 0 44 -35 61 -65 31z"/>
<path d="M662 6810 c-29 -28 -37 -64 -23 -110 13 -44 62 -90 95 -90 32 0 66
28 66 55 0 47 -65 54 -76 9 -7 -27 -14 -30 -32 -12 -19 19 -15 66 7 78 11 5
54 10 95 10 61 0 76 3 76 15 0 10 -10 15 -31 15 -16 0 -47 11 -67 25 -44 30
-81 32 -110 5z"/>
</g>
</svg>
